<svg xmlns="http://www.w3.org/2000/svg" viewBox="0 0 48 48">
<path fill="#FFC107" d="M43.611 20.083H42V20H24v8h11.303C33.658 32.658 29.173 36 24 36c-6.627 0-12-5.373-12-12s5.373-12 12-12c3.059 0 5.842 1.154 7.961 3.039l5.657-5.657C34.523 6.053 29.491 4 24 4 12.955 4 4 12.955 4 24s8.955 20 20 20 20-8.955 20-20c0-1.341-.138-2.65-.389-3.917z"/>
<path fill="#FF3D00" d="M6.306 14.691l6.571 4.819C14.655 16.108 18.961 12 24 12c3.059 0 5.842 1.154 7.961 3.039l5.657-5.657C34.523 6.053 29.491 4 24 4 16.318 4 9.656 8.337 6.306 14.691z"/>
<path fill="#4CAF50" d="M24 44c5.143 0 9.94-1.977 13.578-5.213l-6.27-5.302C29.251 35.091 26.715 36 24 36c-5.151 0-9.525-3.317-11.145-7.946l-6.526 5.022C9.69 39.556 16.227 44 24 44z"/>
<path fill="#1976D2" d="M43.611 20.083H42V20H24v8h11.303a12.04 12.04 0 0 1-4.249 5.485l.003-.002 6.27 5.302C36.971 39.205 44 34 44 24c0-1.341-.138-2.65-.389-3.917z"/>
</svg>